Coordinates
version=1
nRows=9
nColumns=42
inDegrees=yes

Units are S.I. units (second, meters, Newtons, ...)
If the header above contains a line with 'inDegrees', this indicates whether rotational values are in degrees (yes) or radians (no).

endheader
time	pelvis_tilt	pelvis_list	pelvis_rotation	pelvis_tx	pelvis_ty	pelvis_tz	hip_flexion_r	hip_adduction_r	hip_rotation_r	knee_angle_r	knee_adduction_r	knee_angle_r_beta	ankle_angle_r	subtalar_angle_r	mtp_angle_r	hip_flexion_l	hip_adduction_l	hip_rotation_l	knee_angle_l	knee_adduction_l	knee_angle_l_beta	ankle_angle_l	subtalar_angle_l	mtp_angle_l	lumbar_extension	lumbar_bending	lumbar_rotation	arm_flex_r	arm_add_r	arm_rot_r	elbow_flex_r	pro_sup_r	wrist_flex_r	wrist_dev_r	arm_flex_l	arm_add_l	arm_rot_l	elbow_flex_l	pro_sup_l	wrist_flex_l	wrist_dev_l
      2.66000000	     12.94070346	      3.36056568	      4.77764651	      0.82086908	      0.86921030	      0.16753604	     16.67334964	     -4.26184609	    -35.61583012	     15.79793358	     -4.46537156	      0.27572596	      9.56327759	     39.06813899	     -7.50168149	    -29.65261744	      5.48049372	    -14.98281934	     15.84149824	     -7.88639081	      0.27648630	     30.08520640	     36.85912811	     -7.50168149	    -37.83037625	      1.49931667	     -6.60614753	     -0.60209506	    -11.48002256	     -1.43864230	     42.22394348	     90.00000001	      0.00000000	      0.00000000	     22.16796654	    -17.43533293	     -0.06842743	     55.07587482	     90.00000001	      0.00000000	      0.00000000
      2.67000000	     12.83896958	      3.19431158	      4.90187149	      0.83545005	      0.86805182	      0.16820892	     16.61343739	     -3.67978544	    -35.72770725	     16.34592262	     -5.13381231	      0.28529017	      8.97174894	     39.09813641	     -7.50165756	    -29.66650786	      4.92515197	    -15.15068203	     17.59013226	     -8.09514774	      0.30700572	     29.17870899	     36.73035256	     -7.50165756	    -37.47673707	      1.79958223	     -6.50632274	     -0.68077779	    -11.53229490	     -1.57331867	     42.02691854	     90.00000001	      0.00000000	      0.00000000	     21.97176085	    -17.30905782	     -0.16091227	     55.45745303	     90.00000001	      0.00000000	      0.00000000
      2.68000000	     12.81964226	      2.84602222	      5.07321953	      0.85025079	      0.86727298	      0.16888198	     16.54135508	     -2.94894183	    -35.91154243	     17.21627742	     -6.02588783	      0.30048073	      8.32976119	     39.13805627	     -7.50163084	    -29.67278292	      4.15002478	    -15.40208566	     19.46073209	     -8.36871440	      0.33965385	     27.84617420	     36.65926576	     -7.50163084	    -37.18753179	      2.32773841	     -6.35155536	     -0.72353149	    -11.62350464	     -1.70678270	     41.81778057	     90.00000001	      0.00000000	      0.00000000	     21.63024785	    -17.13527612	     -0.30179042	     55.85128428	     90.00000001	      0.00000000	      0.00000000
      2.69000000	     12.86251640	      2.48709996	      5.16381144	      0.86510175	      0.86683129	      0.16969647	     16.52780493	     -2.26242657	    -35.87671375	     18.49674633	     -7.02057225	      0.32282912	      7.90216830	     39.12960975	     -7.50161180	    -29.66908485	      3.37738117	    -15.61383857	     21.44018402	     -8.63318877	      0.37420180	     26.19159639	     36.56513165	     -7.50161180	    -36.97507618	      2.82863469	     -6.11097353	     -0.73821935	    -11.75058117	     -1.77581065	     41.62104810	     90.00000001	      0.00000000	      0.00000000	     21.23492184	    -16.93142158	     -0.46792516	     56.15880174	     90.00000001	      0.00000000	      0.00000000
      2.70000000	     12.98943825	      2.03320872	      5.26431496	      0.88014109	      0.86680728	      0.17051736	     16.48128671	     -1.56042575	    -35.88969681	     20.08602952	     -8.08560649	      0.35056735	      7.89547667	     39.11673749	     -7.50158592	    -29.65840580	      2.51828873	    -15.81502156	     23.50374334	     -8.99329487	      0.41021771	     23.87669012	     36.42572809	     -7.50158592	    -36.83145409	      3.44253048	     -5.85310269	     -0.71610077	    -11.91614067	     -1.76621520	     41.46277727	     90.00000001	      0.00000000	      0.00000000	     20.69972149	    -16.69685387	     -0.70138428	     56.45308554	     90.00000001	      0.00000000	      0.00000000
      2.71000000	     13.18893047	      1.62947090	      5.31097177	      0.89494887	      0.86725132	      0.17140765	     16.34082440	     -0.98702783	    -35.32177020	     21.86353748	     -8.87218464	      0.38159072	      7.86301213	     39.02982116	     -7.50157664	    -29.63998869	      1.78606635	    -15.62322874	     25.58812477	     -9.37352079	      0.44659703	     22.11720078	     36.26144463	     -7.50157664	    -36.82921937	      3.98545792	     -5.54022930	     -0.60425092	    -12.08833582	     -1.75333714	     41.29878910	     90.00000001	      0.00000000	      0.00000000	     20.22883191	    -16.47133670	     -0.81458267	     56.53757501	     90.00000001	      0.00000000	      0.00000000
      2.72000000	     13.54273691	      1.09631327	      5.33944692	      0.91022292	      0.86806809	      0.17250583	     15.93673816	     -0.40894036	    -35.14091452	     23.76322935	     -9.43626528	      0.41474659	      8.58537400	     38.87792333	     -7.50156347	    -29.59008813	      0.71889996	    -15.86886577	     28.07096118	     -9.57082040	      0.48993070	     18.97707863	     35.78236925	     -7.50156347	    -36.90979336	      4.62153173	     -5.17672179	     -0.56254079	    -12.28383901	     -1.64068417	     41.18806634	     90.00000001	      0.00000000	      0.00000000	     19.55875932	    -16.24038608	     -1.02827361	     56.73613090	     90.00000001	      0.00000000	      0.00000000
      2.73000000	     13.97740030	      0.45687619	      5.50173845	      0.92545752	      0.86942464	      0.17343650	     15.17189565	      0.37669589	    -34.74710507	     25.19460589	     -9.83952194	      0.43972883	     10.06260890	     38.71404733	     -7.50154123	    -29.52246008	     -0.34454494	    -15.84972693	     30.39120848	    -10.10086246	      0.53042665	     15.46685826	     35.26966816	     -7.50154123	    -37.09236599	      5.44712343	     -4.91565833	     -0.46378877	    -12.54985969	     -1.32578566	     41.25267209	     90.00000001	      0.00000000	      0.00000000	     18.75438740	    -16.02486932	     -1.26320245	     56.90475900	     90.00000001	      0.00000000	      0.00000000
      2.74000000	     14.53410874	     -0.18532367	      5.63138075	      0.94034225	      0.87126209	      0.17450261	     14.04897133	      1.11759544	    -34.07605741	     26.37662569	     -9.71316188	      0.46035896	     11.23991823	     38.45880630	     -7.50151966	    -29.41521600	     -1.45381007	    -15.73151479	     32.82912799	    -10.51050762	      0.57297637	     12.86816208	     34.80217588	     -7.50151966	    -37.46219581	      6.23156216	     -4.56715708	     -0.30388144	    -12.83054510	     -0.97583824	     41.35503847	     90.00000001	      0.00000000	      0.00000000	     18.05561626	    -15.82584193	     -1.40807837	     56.93846924	     90.00000001	      0.00000000	      0.00000000
